{"title":"Game.of.Thrones.S02E03.HDTV.XviD-Atilla82","uid":7200790,"size":367668482,"categoryP":"video","categoryS":"tv_shows","magnet":"?xt=urn:btih:7ed358f8b144eac44fa186e54005cdc60382b8c9&amp;dn=Game.of.Thrones.S02E03.HDTV.XviD-Atilla82&amp;tr=udp%3A%2F%2Ftracker.openbittorrent.com%3A80&amp;tr=udp%3A%2F%2Fopen.demonii.com%3A1337&amp;tr=udp%3A%2F%2Ftracker.coppersurfer.tk%3A6969&amp;tr=udp%3A%2F%2Fexodus.desync.com%3A6969","seeders":2,"leechers":1,"uploader":"Atilla82","files":3,"time":1334928753,"description":"Game.of.Thrones.S02E02.HDTV.XviD-Atilla82\n\n\n/tt0944947/\n\n\nSeven noble families fight for control of the mythical land of Westeros.\n\n\nscreens included in torrent\n\n\nGeneral\nComplete name                            : Game.of.Thrones.S02E03.HDTV.XviD-Atilla82.avi\nFormat                                   : AVI\nFormat/Info                              : Audio Video Interleave\nFile size                                : 350 MiB\nDuration                                 : 54mn 12s\nOverall bit rate                         : 904 Kbps\nWriting application                      : Lavf52.61.0\n\nVideo\nID                                       : 0\nFormat                                   : MPEG-4 Visual\nFormat profile                           : Advanced Simple@L5\nFormat settings, BVOP                    : No\nFormat settings, QPel                    : Yes\nFormat settings, GMC                     : No warppoints\nFormat settings, Matrix                  : Default (H.263)\nCodec ID                                 : XVID\nCodec ID/Hint                            : XviD\nDuration                                 : 54mn 12s\nBit rate                                 : 763 Kbps\nWidth                                    : 680 pixels\nHeight                                   : 380 pixels\nDisplay aspect ratio                     : 16:9\nFrame rate                               : 23.976 fps\nColor space                              : YUV\nChroma subsampling                       : 4:2:0\nBit depth                                : 8 bits\nScan type                                : Progressive\nCompression mode                         : Lossy\nBits/(Pixel*Frame)                       : 0.123\nStream size                              : 296 MiB (84%)\nWriting library                          : XviD 64\n\nAudio\nID                                       : 1\nFormat                                   : MPEG Audio\nFormat version                           : Version 1\nFormat profile                           : Layer 3\nCodec ID                                 : 55\nCodec ID/Hint                            : MP3\nDuration                                 : 54mn 12s\nBit rate mode                            : Constant\nBit rate                                 : 128 Kbps\nChannel(s)                               : 2 channels\nSampling rate                            : 48.0 KHz\nCompression mode                         : Lossy\nStream size                              : 49.6 MiB (14%)\nAlignment                                : Aligned on interleaves\nInterleave, duration                     : 24 ms (0.58 video frame)\n\n","torrent":{"xt":"urn:btih:7ed358f8b144eac44fa186e54005cdc60382b8c9","amp;dn":"Game.of.Thrones.S02E03.HDTV.XviD-Atilla82","amp;tr":["udp%3A%2F%2Ftracker.openbittorrent.com%3A80","udp%3A%2F%2Fopen.demonii.com%3A1337","udp%3A%2F%2Ftracker.coppersurfer.tk%3A6969","udp%3A%2F%2Fexodus.desync.com%3A6969"],"infoHash":"7ed358f8b144eac44fa186e54005cdc60382b8c9","infoHashBuffer":{"type":"Buffer","data":[126,211,88,248,177,68,234,196,79,161,134,229,64,5,205,198,3,130,184,201]},"announce":[],"urlList":[]}}